<svg xmlns="http://www.w3.org/2000/svg" viewBox="0 0 80 80"><defs><style>.cls-1{fill:#031f35;}</style></defs><g id="Capa_2" data-name="Capa 2"><g id="Capa_1-2" data-name="Capa 1"><path class="cls-1" d="M79.8,44c.13-1.31.2-2.64.2-4s-.07-2.68-.2-4L23.27,38.87.5,33.63a40.83,40.83,0,0,0,0,12.74l22.77-5.24Z"/><path class="cls-1" d="M59.43,55.14l12,9.62A39.71,39.71,0,0,0,76.8,55.7l-14.27-8L23.58,45.08l-20,11.44a39.77,39.77,0,0,0,5.37,8.67L24.59,48.83Z"/><path class="cls-1" d="M47.73,64.4l7.86,12.45a39.94,39.94,0,0,0,8.17-4.67L56.11,59.35,27,54.3,16.14,72.11a40.32,40.32,0,0,0,9.62,5.28l4-19Z"/><path class="cls-1" d="M44.73,79.75A43.17,43.17,0,0,1,40,80a46.43,46.43,0,0,1-5-.28l.17-16.91a17.42,17.42,0,0,0,4,1.61Z"/><path class="cls-1" d="M44.73.25A43.17,43.17,0,0,0,40,0a46.43,46.43,0,0,0-5,.28l.17,16.92a17,17,0,0,1,4-1.62Z"/><path class="cls-1" d="M62.56,32.44,76.8,24.3a39.71,39.71,0,0,0-5.38-9.06L59.44,25,24.62,31.08,8.93,14.81a39.77,39.77,0,0,0-5.37,8.67l20,11.44Z"/><path class="cls-1" d="M47.73,15.6,55.59,3.15a39.94,39.94,0,0,1,8.17,4.67L56.49,20.5,27,25.7,16.14,7.89a40.32,40.32,0,0,1,9.62-5.28l4,19Z"/></g></g></svg>