<svg xmlns="http://www.w3.org/2000/svg" viewBox="0 0 625.02 193.76"><defs><style>.cls-1{fill:#e2eadb;}.cls-2{fill:#7fed3e;}</style></defs><g id="Capa_2" data-name="Capa 2"><g id="Capa_1-2" data-name="Capa 1"><path class="cls-1" d="M236.44,91q.3-3,.3-6.17c0-2.08-.1-4.14-.3-6.16L149.09,83,113.92,75a62.39,62.39,0,0,0,0,19.67l35.17-8.09Z"/><path class="cls-1" d="M205,108.17,223.49,123a61.7,61.7,0,0,0,8.31-14l-22-12.43-60.18-4-30.94,17.68a61.49,61.49,0,0,0,8.3,13.4l24.19-25.29Z"/><path class="cls-1" d="M186.88,122.48,199,141.72a61.65,61.65,0,0,0,12.64-7.22l-11.83-19.82-45.06-7.8-16.69,27.51a61.43,61.43,0,0,0,14.85,8.16l6.18-29.38Z"/><path class="cls-1" d="M182.25,146.21a70,70,0,0,1-7.28.38,69.06,69.06,0,0,1-7.79-.44l.27-26.13a27.15,27.15,0,0,0,6.11,2.49Z"/><path class="cls-1" d="M182.25,23.36A70,70,0,0,0,175,23a71.5,71.5,0,0,0-7.79.43l.27,26.14a26.25,26.25,0,0,1,6.11-2.49Z"/><path class="cls-1" d="M209.8,73.1l22-12.58a61.77,61.77,0,0,0-8.31-14L205,61.54,151.17,71,126.94,45.85a61.49,61.49,0,0,0-8.3,13.4l30.94,17.68Z"/><path class="cls-1" d="M186.88,47.08,199,27.85a62.07,62.07,0,0,1,12.64,7.21l-11.23,19.6-45.66,8L138.08,35.17A61.77,61.77,0,0,1,152.93,27l6.18,29.39Z"/><polygon class="cls-1" points="0 26.16 21.34 26.16 55.76 137.67 90.18 26.16 111.52 26.16 73.42 143.41 38.09 143.41 0 26.16"/><path class="cls-1" d="M252.85,26.16h19.51V39.7c5.73-8.49,14.22-13.54,29.83-13.54h11.7v19.5h-11.7c-17.67,0-29.83,9.87-29.83,34.19v63.56H252.85Z"/><path class="cls-1" d="M346,114.27V44.51H328.8V26.16h17.67V0h19V26.16H394.2V44.51H365.51v80.54h29.14v18.36H377.22C354,143.41,346,130.33,346,114.27"/><path class="cls-1" d="M414.16,96.37V73.2c0-31.21,19-49.11,48.41-49.11,27.53,0,47.5,15.61,48,49.11V91.78H433.66v4.59c0,23.86,11.93,30.75,28.91,30.75,14.23,0,26.16-5.05,28.22-20.65H510.3c-2.07,24.78-21.8,39-47.73,39-29.37,0-48.41-17.89-48.41-49.1M491,74.57V73.2C490.56,49.79,477.94,42,462.57,42c-17,0-28.91,7.8-28.91,31.21v1.37Z"/><polygon class="cls-1" points="560.09 84.44 523.37 26.16 546.55 26.16 573.85 71.13 600.93 26.16 624.33 26.16 587.39 83.98 625.02 143.41 602.3 143.41 573.85 97.06 544.94 143.41 522 143.41 560.09 84.44"/><path class="cls-2" d="M429.14,170.63h2.92v3c1.08-1.93,3.2-3.37,6.71-3.37a7.85,7.85,0,0,1,7.2,3.82c1.26-2.11,3.51-3.82,7.56-3.82,5.17,0,8.55,3.42,8.55,8.46v14.67h-2.93v-14c0-4-2.07-6.39-6-6.39-3.55,0-6,2.12-6,6.39v14h-2.92v-14c0-4-2.07-6.39-6-6.39-3.56,0-6.08,2.12-6.08,6.39v14h-2.92Z"/><path class="cls-2" d="M468.42,184.27v-4.55c0-6.12,3.6-9.49,9.23-9.49,5.35,0,9.09,3.06,9.18,9.49v3.33H471.35v1.22c0,5,2.52,6.75,6.3,6.75,3.19,0,5.71-1.31,6.16-4.77h2.93c-.5,4.86-4.14,7.51-9.09,7.51-5.63,0-9.23-3.37-9.23-9.49m15.48-3.83v-.72c-.09-4.95-2.7-6.84-6.25-6.84-3.78,0-6.3,1.89-6.3,6.84v.72Z"/><path class="cls-2" d="M491.82,184.27v-4.55c0-6.12,3.56-9.49,9.18-9.49a8.21,8.21,0,0,1,6.3,2.47V160.06h2.93v33.3H507.3v-2.07a8.21,8.21,0,0,1-6.3,2.47c-5.62,0-9.18-3.37-9.18-9.49M501,191c3.6,0,6.3-1.76,6.3-6.75v-4.55c0-4.68-2.7-6.75-6.3-6.75-3.78,0-6.25,2.07-6.25,6.75v4.55c0,5,2.47,6.75,6.25,6.75"/><path class="cls-2" d="M518,161.68h3.51v4H518Zm.27,8.95h2.88v22.73h-2.88Z"/><path class="cls-2" d="M527.87,184.27v-4.55c0-6.12,3.55-9.49,9.18-9.49a8.24,8.24,0,0,1,6.3,2.47v-2.07h2.92v22.73h-2.92v-2.07a8.24,8.24,0,0,1-6.3,2.47c-5.63,0-9.18-3.37-9.18-9.49m9.18,6.75c3.64,0,6.3-1.76,6.3-6.75v-4.55c0-4.68-2.66-6.75-6.3-6.75s-6.26,2.07-6.26,6.75v4.55c0,5,2.48,6.75,6.26,6.75"/><path class="cls-2" d="M567,189.8V160.06h2.92v30.55h3.92v2.75H571c-2.66,0-4-1.4-4-3.56"/><path class="cls-2" d="M577.5,184.27v-4.55c0-6.12,3.56-9.49,9.18-9.49a8.21,8.21,0,0,1,6.3,2.47v-2.07h2.93v22.73H593v-2.07a8.21,8.21,0,0,1-6.3,2.47c-5.62,0-9.18-3.37-9.18-9.49m9.18,6.75c3.65,0,6.3-1.76,6.3-6.75v-4.55c0-4.68-2.65-6.75-6.3-6.75s-6.25,2.07-6.25,6.75v4.55c0,5,2.47,6.75,6.25,6.75"/><path class="cls-2" d="M607,191.29v2.07H604.1v-33.3H607V172.7a8.24,8.24,0,0,1,6.3-2.47c5.63,0,9.18,3.37,9.18,9.49v4.55c0,6.12-3.55,9.49-9.18,9.49a8.24,8.24,0,0,1-6.3-2.47m6.3-.27c3.78,0,6.26-1.76,6.26-6.75v-4.55c0-4.68-2.48-6.75-6.26-6.75-3.6,0-6.3,2.07-6.3,6.75v4.55c0,5,2.7,6.75,6.3,6.75"/></g></g></svg>